<mxfile host="app.diagrams.net" modified="2024-06-08T05:18:56.273Z" agent="Mozilla/5.0 (Windows NT 10.0; Win64; x64) AppleWebKit/537.36 (KHTML, like Gecko) Chrome/124.0.0.0 Safari/537.36" version="24.5.2" etag="wXYKUEdggdYQBcmDjQLg" type="device">
  <diagram id="uS44S4-16QFj6etCBGUD" name="Trang-1">
    <mxGraphModel dx="733" dy="304" grid="1" gridSize="10" guides="1" tooltips="1" connect="1" arrows="1" fold="1" page="1" pageScale="1" pageWidth="827" pageHeight="1169" math="0" shadow="0">
      <root>
        <mxCell id="0" />
        <mxCell id="1" parent="0" />
        <mxCell id="hu6AGsfJJfZaXXWA__f1-1" value="" style="ellipse;whiteSpace=wrap;html=1;aspect=fixed;" vertex="1" parent="1">
          <mxGeometry x="360" y="350" width="10" height="10" as="geometry" />
        </mxCell>
        <mxCell id="hu6AGsfJJfZaXXWA__f1-2" value="" style="ellipse;whiteSpace=wrap;html=1;aspect=fixed;" vertex="1" parent="1">
          <mxGeometry x="400" y="370" width="10" height="10" as="geometry" />
        </mxCell>
        <mxCell id="hu6AGsfJJfZaXXWA__f1-3" value="" style="ellipse;whiteSpace=wrap;html=1;aspect=fixed;" vertex="1" parent="1">
          <mxGeometry x="430" y="320" width="10" height="10" as="geometry" />
        </mxCell>
        <mxCell id="hu6AGsfJJfZaXXWA__f1-4" value="" style="ellipse;whiteSpace=wrap;html=1;aspect=fixed;" vertex="1" parent="1">
          <mxGeometry x="490" y="300" width="10" height="10" as="geometry" />
        </mxCell>
        <mxCell id="hu6AGsfJJfZaXXWA__f1-5" value="" style="ellipse;whiteSpace=wrap;html=1;aspect=fixed;" vertex="1" parent="1">
          <mxGeometry x="540" y="280" width="10" height="10" as="geometry" />
        </mxCell>
        <mxCell id="hu6AGsfJJfZaXXWA__f1-6" value="" style="ellipse;whiteSpace=wrap;html=1;aspect=fixed;" vertex="1" parent="1">
          <mxGeometry x="450" y="350" width="10" height="10" as="geometry" />
        </mxCell>
        <mxCell id="hu6AGsfJJfZaXXWA__f1-7" value="" style="ellipse;whiteSpace=wrap;html=1;aspect=fixed;" vertex="1" parent="1">
          <mxGeometry x="460" y="390" width="10" height="10" as="geometry" />
        </mxCell>
        <mxCell id="hu6AGsfJJfZaXXWA__f1-8" value="" style="ellipse;whiteSpace=wrap;html=1;aspect=fixed;" vertex="1" parent="1">
          <mxGeometry x="490" y="360" width="10" height="10" as="geometry" />
        </mxCell>
        <mxCell id="hu6AGsfJJfZaXXWA__f1-9" value="" style="ellipse;whiteSpace=wrap;html=1;aspect=fixed;" vertex="1" parent="1">
          <mxGeometry x="540" y="332.5" width="10" height="10" as="geometry" />
        </mxCell>
        <mxCell id="hu6AGsfJJfZaXXWA__f1-10" value="" style="ellipse;whiteSpace=wrap;html=1;aspect=fixed;" vertex="1" parent="1">
          <mxGeometry x="571" y="325" width="10" height="10" as="geometry" />
        </mxCell>
        <mxCell id="hu6AGsfJJfZaXXWA__f1-11" value="" style="ellipse;whiteSpace=wrap;html=1;aspect=fixed;" vertex="1" parent="1">
          <mxGeometry x="530" y="380" width="10" height="10" as="geometry" />
        </mxCell>
        <mxCell id="hu6AGsfJJfZaXXWA__f1-21" value="" style="ellipse;whiteSpace=wrap;html=1;aspect=fixed;" vertex="1" parent="1">
          <mxGeometry x="600" y="390" width="10" height="10" as="geometry" />
        </mxCell>
        <mxCell id="hu6AGsfJJfZaXXWA__f1-22" value="" style="ellipse;whiteSpace=wrap;html=1;aspect=fixed;" vertex="1" parent="1">
          <mxGeometry x="620" y="340" width="10" height="10" as="geometry" />
        </mxCell>
        <mxCell id="hu6AGsfJJfZaXXWA__f1-23" value="" style="ellipse;whiteSpace=wrap;html=1;aspect=fixed;" vertex="1" parent="1">
          <mxGeometry x="680" y="332.5" width="10" height="10" as="geometry" />
        </mxCell>
        <mxCell id="hu6AGsfJJfZaXXWA__f1-25" value="&lt;font face=&quot;Cambria Math&quot;&gt;S&lt;/font&gt;" style="text;html=1;align=center;verticalAlign=middle;resizable=0;points=[];autosize=1;strokeColor=none;fillColor=none;fontStyle=1" vertex="1" parent="1">
          <mxGeometry x="345" y="318" width="30" height="30" as="geometry" />
        </mxCell>
        <mxCell id="hu6AGsfJJfZaXXWA__f1-26" value="&lt;b&gt;&lt;font face=&quot;Cambria Math&quot;&gt;X&lt;/font&gt;&lt;/b&gt;" style="text;html=1;align=center;verticalAlign=middle;resizable=0;points=[];autosize=1;strokeColor=none;fillColor=none;" vertex="1" parent="1">
          <mxGeometry x="480" y="335" width="30" height="30" as="geometry" />
        </mxCell>
        <mxCell id="hu6AGsfJJfZaXXWA__f1-27" value="&lt;b&gt;&lt;font face=&quot;Cambria Math&quot;&gt;y&lt;/font&gt;&lt;/b&gt;" style="text;html=1;align=center;verticalAlign=middle;resizable=0;points=[];autosize=1;strokeColor=none;fillColor=none;" vertex="1" parent="1">
          <mxGeometry x="530" y="307.5" width="30" height="30" as="geometry" />
        </mxCell>
        <mxCell id="hu6AGsfJJfZaXXWA__f1-28" value="&lt;b&gt;&lt;font face=&quot;Cambria Math&quot;&gt;T&lt;/font&gt;&lt;/b&gt;" style="text;html=1;align=center;verticalAlign=middle;resizable=0;points=[];autosize=1;strokeColor=none;fillColor=none;" vertex="1" parent="1">
          <mxGeometry x="670" y="300" width="30" height="30" as="geometry" />
        </mxCell>
        <mxCell id="hu6AGsfJJfZaXXWA__f1-29" value="" style="endArrow=none;html=1;rounded=0;strokeWidth=0.5;" edge="1" parent="1">
          <mxGeometry width="50" height="50" relative="1" as="geometry">
            <mxPoint x="365" y="355" as="sourcePoint" />
            <mxPoint x="435" y="325" as="targetPoint" />
          </mxGeometry>
        </mxCell>
        <mxCell id="hu6AGsfJJfZaXXWA__f1-31" value="" style="endArrow=none;html=1;rounded=0;strokeWidth=0.5;startSize=27;sourcePerimeterSpacing=7;" edge="1" parent="1">
          <mxGeometry width="50" height="50" relative="1" as="geometry">
            <mxPoint x="455" y="355" as="sourcePoint" />
            <mxPoint x="435" y="324.8" as="targetPoint" />
          </mxGeometry>
        </mxCell>
        <mxCell id="hu6AGsfJJfZaXXWA__f1-33" value="" style="endArrow=none;html=1;rounded=0;strokeWidth=0.5;startSize=27;sourcePerimeterSpacing=7;" edge="1" parent="1">
          <mxGeometry width="50" height="50" relative="1" as="geometry">
            <mxPoint x="466" y="396" as="sourcePoint" />
            <mxPoint x="455" y="355" as="targetPoint" />
          </mxGeometry>
        </mxCell>
        <mxCell id="hu6AGsfJJfZaXXWA__f1-34" value="" style="endArrow=none;html=1;rounded=0;strokeWidth=0.5;startSize=27;sourcePerimeterSpacing=7;" edge="1" parent="1">
          <mxGeometry width="50" height="50" relative="1" as="geometry">
            <mxPoint x="466" y="396" as="sourcePoint" />
            <mxPoint x="495" y="365" as="targetPoint" />
          </mxGeometry>
        </mxCell>
        <mxCell id="hu6AGsfJJfZaXXWA__f1-35" value="" style="endArrow=none;html=1;rounded=0;strokeWidth=0.5;startSize=27;sourcePerimeterSpacing=7;" edge="1" parent="1">
          <mxGeometry width="50" height="50" relative="1" as="geometry">
            <mxPoint x="495" y="365" as="sourcePoint" />
            <mxPoint x="545" y="337" as="targetPoint" />
          </mxGeometry>
        </mxCell>
        <mxCell id="hu6AGsfJJfZaXXWA__f1-36" value="" style="endArrow=none;html=1;rounded=0;strokeWidth=0.5;startSize=27;sourcePerimeterSpacing=7;" edge="1" parent="1">
          <mxGeometry width="50" height="50" relative="1" as="geometry">
            <mxPoint x="545" y="337" as="sourcePoint" />
            <mxPoint x="605" y="395" as="targetPoint" />
          </mxGeometry>
        </mxCell>
        <mxCell id="hu6AGsfJJfZaXXWA__f1-37" value="" style="endArrow=none;html=1;rounded=0;strokeWidth=0.5;startSize=27;sourcePerimeterSpacing=7;" edge="1" parent="1">
          <mxGeometry width="50" height="50" relative="1" as="geometry">
            <mxPoint x="605" y="395" as="sourcePoint" />
            <mxPoint x="625" y="345" as="targetPoint" />
          </mxGeometry>
        </mxCell>
        <mxCell id="hu6AGsfJJfZaXXWA__f1-39" value="" style="endArrow=none;html=1;rounded=0;strokeWidth=0.5;startSize=27;sourcePerimeterSpacing=7;" edge="1" parent="1">
          <mxGeometry width="50" height="50" relative="1" as="geometry">
            <mxPoint x="625" y="345" as="sourcePoint" />
            <mxPoint x="685" y="338" as="targetPoint" />
          </mxGeometry>
        </mxCell>
        <mxCell id="hu6AGsfJJfZaXXWA__f1-53" value="" style="ellipse;whiteSpace=wrap;html=1;aspect=fixed;" vertex="1" parent="1">
          <mxGeometry x="670" y="410" width="10" height="10" as="geometry" />
        </mxCell>
      </root>
    </mxGraphModel>
  </diagram>
</mxfile>
